<mxfile host="app.diagrams.net" modified="2022-03-26T19:54:03.301Z" agent="5.0 (X11; Linux x86_64) AppleWebKit/537.36 (KHTML, like Gecko) Chrome/99.0.4844.74 Safari/537.36" etag="VFDvWQJ_8xsRPrAc-Y5T" version="17.1.3" type="github">
  <diagram id="R2lEEEUBdFMjLlhIrx00" name="Page-1">
    <mxGraphModel dx="2322" dy="467" grid="1" gridSize="10" guides="1" tooltips="1" connect="1" arrows="1" fold="1" page="1" pageScale="1" pageWidth="850" pageHeight="1100" math="0" shadow="0" extFonts="Permanent Marker^https://fonts.googleapis.com/css?family=Permanent+Marker">
      <root>
        <mxCell id="0" />
        <mxCell id="1" parent="0" />
        <mxCell id="48vP6YENGig-sDrKQEu--7" style="rounded=0;orthogonalLoop=1;jettySize=auto;html=1;endArrow=none;endFill=0;" parent="1" source="48vP6YENGig-sDrKQEu--1" target="48vP6YENGig-sDrKQEu--5" edge="1">
          <mxGeometry relative="1" as="geometry" />
        </mxCell>
        <mxCell id="9G95KzgmbBHCbgWc8df_-4" value="" style="edgeStyle=none;rounded=0;orthogonalLoop=1;jettySize=auto;html=1;endArrow=none;endFill=0;" parent="1" source="48vP6YENGig-sDrKQEu--1" target="9G95KzgmbBHCbgWc8df_-3" edge="1">
          <mxGeometry relative="1" as="geometry" />
        </mxCell>
        <mxCell id="9G95KzgmbBHCbgWc8df_-31" style="edgeStyle=none;rounded=0;orthogonalLoop=1;jettySize=auto;html=1;fontSize=10;endArrow=none;endFill=0;entryX=1;entryY=0.5;entryDx=0;entryDy=0;" parent="1" source="48vP6YENGig-sDrKQEu--1" target="9G95KzgmbBHCbgWc8df_-30" edge="1">
          <mxGeometry relative="1" as="geometry" />
        </mxCell>
        <mxCell id="9G95KzgmbBHCbgWc8df_-91" style="edgeStyle=none;rounded=0;orthogonalLoop=1;jettySize=auto;html=1;fontSize=10;startArrow=none;startFill=0;endArrow=none;endFill=0;entryX=0.5;entryY=0;entryDx=0;entryDy=0;" parent="1" source="48vP6YENGig-sDrKQEu--1" target="9G95KzgmbBHCbgWc8df_-89" edge="1">
          <mxGeometry relative="1" as="geometry" />
        </mxCell>
        <mxCell id="48vP6YENGig-sDrKQEu--1" value="Users" style="rounded=0;whiteSpace=wrap;html=1;" parent="1" vertex="1">
          <mxGeometry x="170" y="150" width="120" height="60" as="geometry" />
        </mxCell>
        <mxCell id="48vP6YENGig-sDrKQEu--9" style="edgeStyle=none;rounded=0;orthogonalLoop=1;jettySize=auto;html=1;endArrow=none;endFill=0;" parent="1" source="48vP6YENGig-sDrKQEu--2" target="48vP6YENGig-sDrKQEu--1" edge="1">
          <mxGeometry relative="1" as="geometry" />
        </mxCell>
        <mxCell id="48vP6YENGig-sDrKQEu--2" value="first_name" style="ellipse;whiteSpace=wrap;html=1;" parent="1" vertex="1">
          <mxGeometry x="70" y="160" width="80" height="50" as="geometry" />
        </mxCell>
        <mxCell id="48vP6YENGig-sDrKQEu--6" style="edgeStyle=orthogonalEdgeStyle;rounded=0;orthogonalLoop=1;jettySize=auto;html=1;entryX=0.5;entryY=0;entryDx=0;entryDy=0;endArrow=none;endFill=0;" parent="1" source="48vP6YENGig-sDrKQEu--3" target="48vP6YENGig-sDrKQEu--1" edge="1">
          <mxGeometry relative="1" as="geometry" />
        </mxCell>
        <mxCell id="48vP6YENGig-sDrKQEu--3" value="&lt;b&gt;&lt;u&gt;user_id&lt;/u&gt;&lt;/b&gt; PK" style="ellipse;whiteSpace=wrap;html=1;" parent="1" vertex="1">
          <mxGeometry x="180" y="80" width="80" height="50" as="geometry" />
        </mxCell>
        <mxCell id="48vP6YENGig-sDrKQEu--8" style="rounded=0;orthogonalLoop=1;jettySize=auto;html=1;endArrow=none;endFill=0;" parent="1" source="48vP6YENGig-sDrKQEu--4" target="48vP6YENGig-sDrKQEu--1" edge="1">
          <mxGeometry relative="1" as="geometry" />
        </mxCell>
        <mxCell id="48vP6YENGig-sDrKQEu--4" value="last_name" style="ellipse;whiteSpace=wrap;html=1;" parent="1" vertex="1">
          <mxGeometry x="80" y="240" width="80" height="50" as="geometry" />
        </mxCell>
        <mxCell id="48vP6YENGig-sDrKQEu--5" value="email_addr" style="ellipse;whiteSpace=wrap;html=1;" parent="1" vertex="1">
          <mxGeometry x="270" y="80" width="80" height="50" as="geometry" />
        </mxCell>
        <mxCell id="9G95KzgmbBHCbgWc8df_-6" value="" style="edgeStyle=none;rounded=0;orthogonalLoop=1;jettySize=auto;html=1;endArrow=none;endFill=0;" parent="1" source="9G95KzgmbBHCbgWc8df_-3" target="9G95KzgmbBHCbgWc8df_-5" edge="1">
          <mxGeometry relative="1" as="geometry" />
        </mxCell>
        <mxCell id="9G95KzgmbBHCbgWc8df_-3" value="has" style="rhombus;whiteSpace=wrap;html=1;rounded=0;" parent="1" vertex="1">
          <mxGeometry x="390" y="140" width="80" height="80" as="geometry" />
        </mxCell>
        <mxCell id="9G95KzgmbBHCbgWc8df_-8" value="" style="edgeStyle=none;rounded=0;orthogonalLoop=1;jettySize=auto;html=1;endArrow=none;endFill=0;" parent="1" source="9G95KzgmbBHCbgWc8df_-5" target="9G95KzgmbBHCbgWc8df_-7" edge="1">
          <mxGeometry relative="1" as="geometry" />
        </mxCell>
        <mxCell id="9G95KzgmbBHCbgWc8df_-10" value="" style="edgeStyle=none;rounded=0;orthogonalLoop=1;jettySize=auto;html=1;endArrow=none;endFill=0;" parent="1" source="9G95KzgmbBHCbgWc8df_-5" target="9G95KzgmbBHCbgWc8df_-9" edge="1">
          <mxGeometry relative="1" as="geometry" />
        </mxCell>
        <mxCell id="9G95KzgmbBHCbgWc8df_-12" value="" style="edgeStyle=none;rounded=0;orthogonalLoop=1;jettySize=auto;html=1;endArrow=none;endFill=0;" parent="1" source="9G95KzgmbBHCbgWc8df_-5" target="9G95KzgmbBHCbgWc8df_-11" edge="1">
          <mxGeometry relative="1" as="geometry" />
        </mxCell>
        <mxCell id="9G95KzgmbBHCbgWc8df_-14" value="" style="edgeStyle=none;rounded=0;orthogonalLoop=1;jettySize=auto;html=1;endArrow=none;endFill=0;" parent="1" source="9G95KzgmbBHCbgWc8df_-5" target="9G95KzgmbBHCbgWc8df_-13" edge="1">
          <mxGeometry relative="1" as="geometry" />
        </mxCell>
        <mxCell id="9G95KzgmbBHCbgWc8df_-5" value="roles" style="whiteSpace=wrap;html=1;rounded=0;" parent="1" vertex="1">
          <mxGeometry x="530" y="150" width="120" height="60" as="geometry" />
        </mxCell>
        <mxCell id="9G95KzgmbBHCbgWc8df_-7" value="&lt;u&gt;role_id&lt;/u&gt;" style="ellipse;whiteSpace=wrap;html=1;rounded=0;" parent="1" vertex="1">
          <mxGeometry x="440" y="250" width="70" height="40" as="geometry" />
        </mxCell>
        <mxCell id="9G95KzgmbBHCbgWc8df_-9" value="role_name" style="ellipse;whiteSpace=wrap;html=1;rounded=0;" parent="1" vertex="1">
          <mxGeometry x="520" y="250" width="60" height="40" as="geometry" />
        </mxCell>
        <mxCell id="9G95KzgmbBHCbgWc8df_-11" value="role_desc" style="ellipse;whiteSpace=wrap;html=1;rounded=0;" parent="1" vertex="1">
          <mxGeometry x="530" y="80" width="70" height="40" as="geometry" />
        </mxCell>
        <mxCell id="9G95KzgmbBHCbgWc8df_-16" value="" style="edgeStyle=none;rounded=0;orthogonalLoop=1;jettySize=auto;html=1;endArrow=none;endFill=0;" parent="1" source="9G95KzgmbBHCbgWc8df_-13" target="9G95KzgmbBHCbgWc8df_-15" edge="1">
          <mxGeometry relative="1" as="geometry" />
        </mxCell>
        <mxCell id="9G95KzgmbBHCbgWc8df_-13" value="collections of&amp;nbsp;" style="rhombus;whiteSpace=wrap;html=1;rounded=0;" parent="1" vertex="1">
          <mxGeometry x="750" y="140" width="80" height="80" as="geometry" />
        </mxCell>
        <mxCell id="9G95KzgmbBHCbgWc8df_-18" value="" style="edgeStyle=none;rounded=0;orthogonalLoop=1;jettySize=auto;html=1;endArrow=none;endFill=0;" parent="1" source="9G95KzgmbBHCbgWc8df_-15" target="9G95KzgmbBHCbgWc8df_-17" edge="1">
          <mxGeometry relative="1" as="geometry" />
        </mxCell>
        <mxCell id="9G95KzgmbBHCbgWc8df_-22" value="" style="edgeStyle=none;rounded=0;orthogonalLoop=1;jettySize=auto;html=1;endArrow=none;endFill=0;" parent="1" source="9G95KzgmbBHCbgWc8df_-15" target="9G95KzgmbBHCbgWc8df_-21" edge="1">
          <mxGeometry relative="1" as="geometry" />
        </mxCell>
        <mxCell id="9G95KzgmbBHCbgWc8df_-24" value="" style="edgeStyle=none;rounded=0;orthogonalLoop=1;jettySize=auto;html=1;endArrow=none;endFill=0;" parent="1" source="9G95KzgmbBHCbgWc8df_-15" target="9G95KzgmbBHCbgWc8df_-23" edge="1">
          <mxGeometry relative="1" as="geometry" />
        </mxCell>
        <mxCell id="9G95KzgmbBHCbgWc8df_-15" value="Permissions" style="whiteSpace=wrap;html=1;rounded=0;" parent="1" vertex="1">
          <mxGeometry x="730" y="310" width="120" height="60" as="geometry" />
        </mxCell>
        <mxCell id="9G95KzgmbBHCbgWc8df_-20" value="" style="edgeStyle=none;rounded=0;orthogonalLoop=1;jettySize=auto;html=1;endArrow=classic;endFill=1;entryX=0.5;entryY=0;entryDx=0;entryDy=0;" parent="1" source="9G95KzgmbBHCbgWc8df_-17" target="9G95KzgmbBHCbgWc8df_-56" edge="1">
          <mxGeometry relative="1" as="geometry">
            <mxPoint x="790" y="600" as="targetPoint" />
          </mxGeometry>
        </mxCell>
        <mxCell id="9G95KzgmbBHCbgWc8df_-17" value="require" style="rhombus;whiteSpace=wrap;html=1;rounded=0;" parent="1" vertex="1">
          <mxGeometry x="760" y="390" width="60" height="40" as="geometry" />
        </mxCell>
        <mxCell id="9G95KzgmbBHCbgWc8df_-26" value="" style="edgeStyle=none;rounded=0;orthogonalLoop=1;jettySize=auto;html=1;endArrow=none;endFill=0;exitX=1;exitY=0.5;exitDx=0;exitDy=0;" parent="1" source="9G95KzgmbBHCbgWc8df_-56" target="9G95KzgmbBHCbgWc8df_-25" edge="1">
          <mxGeometry relative="1" as="geometry">
            <mxPoint x="850" y="490" as="sourcePoint" />
          </mxGeometry>
        </mxCell>
        <mxCell id="9G95KzgmbBHCbgWc8df_-21" value="&lt;u&gt;perm_id&lt;/u&gt;" style="ellipse;whiteSpace=wrap;html=1;rounded=0;" parent="1" vertex="1">
          <mxGeometry x="880" y="320" width="60" height="40" as="geometry" />
        </mxCell>
        <mxCell id="9G95KzgmbBHCbgWc8df_-23" value="perm_type" style="ellipse;whiteSpace=wrap;html=1;rounded=0;" parent="1" vertex="1">
          <mxGeometry x="880" y="265" width="60" height="35" as="geometry" />
        </mxCell>
        <mxCell id="9G95KzgmbBHCbgWc8df_-25" value="resource_id" style="ellipse;whiteSpace=wrap;html=1;rounded=0;" parent="1" vertex="1">
          <mxGeometry x="880" y="470" width="70" height="40" as="geometry" />
        </mxCell>
        <mxCell id="9G95KzgmbBHCbgWc8df_-27" value="" style="edgeStyle=none;rounded=0;orthogonalLoop=1;jettySize=auto;html=1;endArrow=none;endFill=0;exitX=0.75;exitY=1;exitDx=0;exitDy=0;" parent="1" source="9G95KzgmbBHCbgWc8df_-56" target="9G95KzgmbBHCbgWc8df_-28" edge="1">
          <mxGeometry relative="1" as="geometry">
            <mxPoint x="832.72" y="521.44" as="sourcePoint" />
          </mxGeometry>
        </mxCell>
        <mxCell id="9G95KzgmbBHCbgWc8df_-28" value="&lt;font style=&quot;font-size: 10px&quot;&gt;resource_type&lt;/font&gt;" style="ellipse;whiteSpace=wrap;html=1;rounded=0;" parent="1" vertex="1">
          <mxGeometry x="880" y="520" width="70" height="40" as="geometry" />
        </mxCell>
        <mxCell id="9G95KzgmbBHCbgWc8df_-33" value="" style="edgeStyle=none;rounded=0;orthogonalLoop=1;jettySize=auto;html=1;fontSize=10;endArrow=none;endFill=0;" parent="1" source="9G95KzgmbBHCbgWc8df_-30" target="9G95KzgmbBHCbgWc8df_-32" edge="1">
          <mxGeometry relative="1" as="geometry" />
        </mxCell>
        <mxCell id="9G95KzgmbBHCbgWc8df_-30" value="isa" style="triangle;whiteSpace=wrap;html=1;fontSize=10;direction=north;" parent="1" vertex="1">
          <mxGeometry x="180" y="262.5" width="80" height="60" as="geometry" />
        </mxCell>
        <mxCell id="9G95KzgmbBHCbgWc8df_-35" value="" style="edgeStyle=none;rounded=0;orthogonalLoop=1;jettySize=auto;html=1;fontSize=10;endArrow=none;endFill=0;" parent="1" source="9G95KzgmbBHCbgWc8df_-32" target="9G95KzgmbBHCbgWc8df_-34" edge="1">
          <mxGeometry relative="1" as="geometry" />
        </mxCell>
        <mxCell id="9G95KzgmbBHCbgWc8df_-32" value="Student" style="whiteSpace=wrap;html=1;fontSize=10;" parent="1" vertex="1">
          <mxGeometry x="160" y="410" width="120" height="60" as="geometry" />
        </mxCell>
        <mxCell id="9G95KzgmbBHCbgWc8df_-39" value="" style="edgeStyle=none;rounded=0;orthogonalLoop=1;jettySize=auto;html=1;fontSize=10;endArrow=none;endFill=0;" parent="1" source="9G95KzgmbBHCbgWc8df_-34" target="9G95KzgmbBHCbgWc8df_-38" edge="1">
          <mxGeometry relative="1" as="geometry" />
        </mxCell>
        <mxCell id="9G95KzgmbBHCbgWc8df_-34" value="part_of" style="rhombus;whiteSpace=wrap;html=1;fontSize=10;" parent="1" vertex="1">
          <mxGeometry x="180" y="540" width="80" height="80" as="geometry" />
        </mxCell>
        <mxCell id="9G95KzgmbBHCbgWc8df_-41" value="" style="edgeStyle=none;rounded=0;orthogonalLoop=1;jettySize=auto;html=1;fontSize=10;endArrow=none;endFill=0;startArrow=classic;startFill=1;" parent="1" source="9G95KzgmbBHCbgWc8df_-38" target="9G95KzgmbBHCbgWc8df_-40" edge="1">
          <mxGeometry relative="1" as="geometry" />
        </mxCell>
        <mxCell id="9G95KzgmbBHCbgWc8df_-60" value="" style="edgeStyle=none;rounded=0;orthogonalLoop=1;jettySize=auto;html=1;fontSize=10;endArrow=none;endFill=0;startArrow=classic;startFill=1;" parent="1" source="9G95KzgmbBHCbgWc8df_-38" target="9G95KzgmbBHCbgWc8df_-59" edge="1">
          <mxGeometry relative="1" as="geometry" />
        </mxCell>
        <mxCell id="9G95KzgmbBHCbgWc8df_-38" value="Course" style="whiteSpace=wrap;html=1;fontSize=10;" parent="1" vertex="1">
          <mxGeometry x="160" y="710" width="120" height="60" as="geometry" />
        </mxCell>
        <mxCell id="9G95KzgmbBHCbgWc8df_-40" value="has" style="rhombus;whiteSpace=wrap;html=1;fontSize=10;" parent="1" vertex="1">
          <mxGeometry x="40" y="700" width="80" height="80" as="geometry" />
        </mxCell>
        <mxCell id="9G95KzgmbBHCbgWc8df_-79" style="edgeStyle=none;shape=link;rounded=0;orthogonalLoop=1;jettySize=auto;html=1;fontSize=10;startArrow=classic;startFill=1;endArrow=none;endFill=0;" parent="1" source="9G95KzgmbBHCbgWc8df_-44" target="9G95KzgmbBHCbgWc8df_-40" edge="1">
          <mxGeometry relative="1" as="geometry" />
        </mxCell>
        <mxCell id="9G95KzgmbBHCbgWc8df_-80" style="edgeStyle=none;rounded=0;orthogonalLoop=1;jettySize=auto;html=1;entryX=0;entryY=0.5;entryDx=0;entryDy=0;fontSize=10;startArrow=none;startFill=0;endArrow=none;endFill=0;" parent="1" source="9G95KzgmbBHCbgWc8df_-44" target="9G95KzgmbBHCbgWc8df_-34" edge="1">
          <mxGeometry relative="1" as="geometry">
            <Array as="points">
              <mxPoint x="-70" y="580" />
            </Array>
          </mxGeometry>
        </mxCell>
        <mxCell id="9G95KzgmbBHCbgWc8df_-44" value="Section" style="shape=ext;margin=3;double=1;whiteSpace=wrap;html=1;align=center;fontSize=10;strokeColor=default;fillColor=default;" parent="1" vertex="1">
          <mxGeometry x="-120" y="720" width="100" height="40" as="geometry" />
        </mxCell>
        <mxCell id="9G95KzgmbBHCbgWc8df_-82" value="" style="edgeStyle=none;rounded=0;orthogonalLoop=1;jettySize=auto;html=1;fontSize=10;startArrow=none;startFill=0;endArrow=none;endFill=0;" parent="1" source="9G95KzgmbBHCbgWc8df_-56" target="9G95KzgmbBHCbgWc8df_-81" edge="1">
          <mxGeometry relative="1" as="geometry" />
        </mxCell>
        <mxCell id="9G95KzgmbBHCbgWc8df_-56" value="Resources" style="shape=ext;margin=3;double=1;whiteSpace=wrap;html=1;align=center;fontSize=10;strokeColor=default;fillColor=default;" parent="1" vertex="1">
          <mxGeometry x="735" y="460" width="110" height="60" as="geometry" />
        </mxCell>
        <mxCell id="9G95KzgmbBHCbgWc8df_-62" value="" style="edgeStyle=none;rounded=0;orthogonalLoop=1;jettySize=auto;html=1;fontSize=10;startArrow=none;startFill=0;endArrow=none;endFill=0;entryX=0;entryY=0.5;entryDx=0;entryDy=0;" parent="1" source="9G95KzgmbBHCbgWc8df_-59" target="9G95KzgmbBHCbgWc8df_-61" edge="1">
          <mxGeometry relative="1" as="geometry">
            <Array as="points">
              <mxPoint x="420" y="740" />
              <mxPoint x="430" y="740" />
            </Array>
          </mxGeometry>
        </mxCell>
        <mxCell id="9G95KzgmbBHCbgWc8df_-59" value="contains" style="rhombus;whiteSpace=wrap;html=1;fontSize=10;" parent="1" vertex="1">
          <mxGeometry x="320" y="700" width="80" height="80" as="geometry" />
        </mxCell>
        <mxCell id="9G95KzgmbBHCbgWc8df_-86" value="" style="edgeStyle=none;rounded=0;orthogonalLoop=1;jettySize=auto;html=1;fontSize=10;startArrow=classic;startFill=1;endArrow=none;endFill=0;" parent="1" source="9G95KzgmbBHCbgWc8df_-61" target="9G95KzgmbBHCbgWc8df_-85" edge="1">
          <mxGeometry relative="1" as="geometry" />
        </mxCell>
        <mxCell id="l5Wu1sQhLZfOI78Fpdy8-1" style="edgeStyle=orthogonalEdgeStyle;rounded=0;orthogonalLoop=1;jettySize=auto;html=1;entryX=0;entryY=0.5;entryDx=0;entryDy=0;endArrow=none;endFill=0;" edge="1" parent="1" source="9G95KzgmbBHCbgWc8df_-61" target="9G95KzgmbBHCbgWc8df_-81">
          <mxGeometry relative="1" as="geometry">
            <Array as="points">
              <mxPoint x="500" y="820" />
              <mxPoint x="775" y="820" />
            </Array>
          </mxGeometry>
        </mxCell>
        <mxCell id="9G95KzgmbBHCbgWc8df_-61" value="Group_Marked_Entity" style="whiteSpace=wrap;html=1;fontSize=10;" parent="1" vertex="1">
          <mxGeometry x="440" y="710" width="120" height="60" as="geometry" />
        </mxCell>
        <mxCell id="9G95KzgmbBHCbgWc8df_-73" value="" style="edgeStyle=none;rounded=0;orthogonalLoop=1;jettySize=auto;html=1;fontSize=10;endArrow=none;endFill=0;" parent="1" source="9G95KzgmbBHCbgWc8df_-74" target="9G95KzgmbBHCbgWc8df_-75" edge="1">
          <mxGeometry relative="1" as="geometry" />
        </mxCell>
        <mxCell id="l5Wu1sQhLZfOI78Fpdy8-3" value="" style="edgeStyle=orthogonalEdgeStyle;rounded=0;orthogonalLoop=1;jettySize=auto;html=1;endArrow=none;endFill=0;" edge="1" parent="1" source="9G95KzgmbBHCbgWc8df_-74" target="l5Wu1sQhLZfOI78Fpdy8-2">
          <mxGeometry relative="1" as="geometry" />
        </mxCell>
        <mxCell id="9G95KzgmbBHCbgWc8df_-74" value="Groups" style="shape=ext;margin=3;double=1;whiteSpace=wrap;html=1;align=center;fontSize=10;strokeColor=default;fillColor=default;" parent="1" vertex="1">
          <mxGeometry x="-250" y="555" width="100" height="40" as="geometry" />
        </mxCell>
        <mxCell id="9G95KzgmbBHCbgWc8df_-75" value="group_id" style="ellipse;whiteSpace=wrap;html=1;fontSize=10;" parent="1" vertex="1">
          <mxGeometry x="-300" y="610" width="90" height="30" as="geometry" />
        </mxCell>
        <mxCell id="9G95KzgmbBHCbgWc8df_-76" value="" style="edgeStyle=none;rounded=0;orthogonalLoop=1;jettySize=auto;html=1;fontSize=10;endArrow=none;endFill=0;exitX=0.5;exitY=1;exitDx=0;exitDy=0;" parent="1" source="9G95KzgmbBHCbgWc8df_-74" target="9G95KzgmbBHCbgWc8df_-77" edge="1">
          <mxGeometry relative="1" as="geometry">
            <mxPoint x="-250" y="555" as="sourcePoint" />
          </mxGeometry>
        </mxCell>
        <mxCell id="9G95KzgmbBHCbgWc8df_-77" value="group_leader_id(FK)" style="ellipse;whiteSpace=wrap;html=1;fontSize=10;" parent="1" vertex="1">
          <mxGeometry x="-190" y="620" width="90" height="30" as="geometry" />
        </mxCell>
        <mxCell id="9G95KzgmbBHCbgWc8df_-84" value="" style="edgeStyle=none;rounded=0;orthogonalLoop=1;jettySize=auto;html=1;fontSize=10;startArrow=none;startFill=0;endArrow=none;endFill=0;entryX=1;entryY=0.5;entryDx=0;entryDy=0;" parent="1" source="9G95KzgmbBHCbgWc8df_-81" target="9G95KzgmbBHCbgWc8df_-88" edge="1">
          <mxGeometry relative="1" as="geometry">
            <mxPoint x="710" y="582.8" as="targetPoint" />
          </mxGeometry>
        </mxCell>
        <mxCell id="9G95KzgmbBHCbgWc8df_-81" value="isa" style="triangle;whiteSpace=wrap;html=1;fontSize=10;direction=north;" parent="1" vertex="1">
          <mxGeometry x="750" y="560" width="50" height="30" as="geometry" />
        </mxCell>
        <mxCell id="9G95KzgmbBHCbgWc8df_-87" style="edgeStyle=none;rounded=0;orthogonalLoop=1;jettySize=auto;html=1;fontSize=10;startArrow=none;startFill=0;endArrow=none;endFill=0;exitX=0.5;exitY=1;exitDx=0;exitDy=0;shape=link;" parent="1" source="9G95KzgmbBHCbgWc8df_-88" target="9G95KzgmbBHCbgWc8df_-85" edge="1">
          <mxGeometry relative="1" as="geometry">
            <mxPoint x="650" y="620" as="sourcePoint" />
          </mxGeometry>
        </mxCell>
        <mxCell id="9G95KzgmbBHCbgWc8df_-85" value="associatedwith" style="rhombus;whiteSpace=wrap;html=1;fontSize=10;" parent="1" vertex="1">
          <mxGeometry x="612.5" y="705" width="75" height="70" as="geometry" />
        </mxCell>
        <mxCell id="9G95KzgmbBHCbgWc8df_-90" value="" style="edgeStyle=none;rounded=0;orthogonalLoop=1;jettySize=auto;html=1;fontSize=10;startArrow=none;startFill=0;endArrow=none;endFill=0;" parent="1" source="9G95KzgmbBHCbgWc8df_-88" target="9G95KzgmbBHCbgWc8df_-89" edge="1">
          <mxGeometry relative="1" as="geometry" />
        </mxCell>
        <mxCell id="9G95KzgmbBHCbgWc8df_-88" value="Files/Discussion" style="shape=ext;margin=3;double=1;whiteSpace=wrap;html=1;align=center;fontSize=10;strokeColor=default;fillColor=default;" parent="1" vertex="1">
          <mxGeometry x="600" y="555" width="100" height="40" as="geometry" />
        </mxCell>
        <mxCell id="9G95KzgmbBHCbgWc8df_-89" value="comments/Suggestion" style="rhombus;whiteSpace=wrap;html=1;fontSize=10;" parent="1" vertex="1">
          <mxGeometry x="460" y="395" width="120" height="85" as="geometry" />
        </mxCell>
        <mxCell id="l5Wu1sQhLZfOI78Fpdy8-4" style="edgeStyle=orthogonalEdgeStyle;rounded=0;orthogonalLoop=1;jettySize=auto;html=1;entryX=0;entryY=0.75;entryDx=0;entryDy=0;endArrow=none;endFill=0;" edge="1" parent="1" source="l5Wu1sQhLZfOI78Fpdy8-2" target="9G95KzgmbBHCbgWc8df_-44">
          <mxGeometry relative="1" as="geometry" />
        </mxCell>
        <mxCell id="l5Wu1sQhLZfOI78Fpdy8-2" value="contains" style="rhombus;whiteSpace=wrap;html=1;fontSize=10;" vertex="1" parent="1">
          <mxGeometry x="-240" y="710" width="80" height="80" as="geometry" />
        </mxCell>
        <mxCell id="l5Wu1sQhLZfOI78Fpdy8-6" style="edgeStyle=orthogonalEdgeStyle;rounded=0;orthogonalLoop=1;jettySize=auto;html=1;entryX=0;entryY=0.75;entryDx=0;entryDy=0;endArrow=none;endFill=0;" edge="1" parent="1" source="l5Wu1sQhLZfOI78Fpdy8-5" target="9G95KzgmbBHCbgWc8df_-32">
          <mxGeometry relative="1" as="geometry">
            <Array as="points">
              <mxPoint x="160" y="440" />
            </Array>
          </mxGeometry>
        </mxCell>
        <mxCell id="l5Wu1sQhLZfOI78Fpdy8-7" style="edgeStyle=orthogonalEdgeStyle;rounded=0;orthogonalLoop=1;jettySize=auto;html=1;endArrow=none;endFill=0;startArrow=none;startFill=0;" edge="1" parent="1" source="l5Wu1sQhLZfOI78Fpdy8-5" target="9G95KzgmbBHCbgWc8df_-74">
          <mxGeometry relative="1" as="geometry" />
        </mxCell>
        <mxCell id="l5Wu1sQhLZfOI78Fpdy8-5" value="part_of" style="rhombus;whiteSpace=wrap;html=1;fontSize=10;" vertex="1" parent="1">
          <mxGeometry x="-240" y="400" width="80" height="80" as="geometry" />
        </mxCell>
      </root>
    </mxGraphModel>
  </diagram>
</mxfile>
